<svg xmlns="http://www.w3.org/2000/svg" xmlns:xlink="http://www.w3.org/1999/xlink" version="1.1" x="0px" y="0px" viewBox="0 0 100 100" enable-background="new 0 0 100 100" xml:space="preserve"><g><path d="M30.095,61.352c0,0-5.532-4.574-8.192-5.532c0,0-1.384-0.266-2.075-1.276c0,0-0.479-0.532-0.958-0.691   c0,0-0.958-0.426-1.117-0.745c0,0-0.266-0.213-0.691-0.479c0,0-1.383-0.798-1.968-2.182c0,0-0.213-0.851-1.011-1.011   c0,0-1.01-0.372-1.436-0.904c0,0-0.691-0.744-1.117-1.063c0,0-3.99-4.043-5.16-11.81c0,0-0.531-4.096-0.319-5.372   c0,0-0.106-1.011,0.745,0c0,0,1.968,2.873,2.5,4.042c0,0-1.436-8.192-1.223-10.213c0,0,0.106-1.117,1.276,0.16   c0,0,2.128,1.968,3.671,7.607c0,0-1.064-6.756-0.852-8.564c0,0,0.212-1.596,1.596,0c0,0,1.755,1.809,2.606,4.416   c0,0,1.331,4.042,1.596,6.437c0,0-0.106-6.49,0.532-6.863c0,0,1.277-0.319,2.606,1.596c0,0,1.862,2.766,1.383,9.469   c0,0,1.648-5.107,1.862-7.075c0,0,0.692-2.021,2.288-0.585c0,0,1.702,1.543,1.542,4.31c0,0-0.372,3.138-0.639,3.883   c0,0,2.341-2.66,3.086-4.043c0,0,1.489-1.33,2.447-0.638c0,0,1.542,0.585,0.957,2.926l-0.532,2.075c0,0,2.234-1.543,3.352-0.691   c0,0,1.862,0.958,1.702,3.032c0,0,3.086,1.063,3.246,3.032c0,0,2.34,0.638,2.18,2.34l0.426-0.053c0,0,0.426-3.192,2.447-4.15   c0,0,2.872-2.553,3.937-3.67c0,0,2.234-2.394,2.819-1.862c0,0,3.139-4.042,4.788-11.862c0,0,0.851-4.096,1.543-3.777   c0,0,0.372-0.054,0.531,1.383c0,0,0.319,6.064-3.351,11.118c0,0,5.266-5,8.139-15.161c0,0,1.17-2.873,1.542-1.33   c0,0,1.438,5.213-5.053,13.406c0,0,5.372-4.841,8.511-11.118c0,0,2.128-3.458,2.554-2.447c0,0,0.904,4.468-7.501,12.5   c0,0,6.49-4.469,10.161-9.309c0,0,1.914-2.128,1.329,0.212c0,0-2.767,5.001-7.234,7.927c0,0-0.638,0.479-0.638,1.223   c0,0,8.884-5.639,11.809-7.979c0,0,2.182-1.596,0.958,0.373c0,0-3.937,4.468-6.224,5.692c0,0-1.649,1.118-1.597,1.968   c0,0,8.405-3.99,9.575-4.415c0,0,0.958-0.319,0.213,0.745c0,0-3.671,3.138-5.479,3.458c0,0-1.648,0.638-0.798,0.691   c0,0,2.394-0.16,3.778-0.905c0,0,2.499-1.383,2.394,0.16c0,0-0.639,1.649-2.022,2.341c0,0,1.968,1.755-0.105,3.138   c0,0,1.276,1.49-0.479,2.234c0,0,1.703,1.17,0.585,1.595c0,0-0.638,0.585-1.596,0.532c0,0,0.852,0.852,0.16,1.064   c0,0,1.276,0.639,0.105,1.33c0,0,1.862,1.277-0.319,2.075c0,0,1.171,1.065-0.744,1.968c0,0,1.17,1.171-0.426,2.021   c0,0,0.373,1.437-0.372,1.702c0,0,0.372,1.489-0.479,1.596c0,0,0.319,1.544-0.851,1.49c0,0-0.214,0.904-0.692,0.904   c0,0,0.426,1.542-0.957,1.596c0,0-0.479,1.649-1.224,1.756c0,0-0.106,0.904-0.799,1.011c0,0-0.053,1.542-1.329,1.755   c0,0-0.266,1.117-0.851,1.171c0,0,0.053,0.584-0.426,0.903c0,0,1.809,2.128-0.799,2.714v0.372c0,0,3.511,1.276,4.628,1.276   c0,0,8.564,0.373,10.64-0.266c0,0,5.16-1.064,3.725,0.798c0,0,3.67,0.745,2.233,1.861c0,0,3.191,0.905,1.543,1.756l-0.106,0.32   c0,0,4.043,1.595,1.861,2.073c0,0,1.489,0.852,0.267,1.224c0,0,0.373,1.383-1.915,1.33c0,0-2.182,0.213-5.32-0.585   c0,0-1.648,0.213-3.511-0.531c0,0-1.383,0.318-3.457-0.426c0,0-1.81-0.373-3.086-0.213c0,0-1.809,1.276-2.447,1.808   c0,0-1.437,0.958-3.457,0.532c0,0-1.862-0.213-2.606-0.904c0,0-1.117-0.69-1.703-0.797l0.426,0.638c0,0-1.117-0.266-2.341-0.054   l0.267,0.426c0,0-1.012-0.16-2.713,0.106c0,0-3.618,0.319-5.16,0.531c0,0-8.618,0.692-16.065-2.073c0,0-5.32-2.448-8.831-2.979   c0,0-8.618-0.106-12.661-2.606c0,0-3.032,0.159-3.617,0.106c0,0-0.106,0.425,0.16,0.744c0,0-1.809-1.117-0.106-3.511   c0,0,0.638-0.851,2.713-1.116c0,0,1.543-1.863,4.416-1.97C23.711,62.521,28.872,62.416,30.095,61.352z"></path></g></svg>